inDegrees=no
num_controls=7
num_derivatives=13
num_iterations=87
num_multipliers=7
num_parameters=0
num_slacks=7
num_states=26
objective=0.454543
objective_accelerations=0.044492
objective_balance=0.000804
objective_effort=0.036406
objective_height=0.366744
objective_ligament=0.006098
solver_duration=977.872113
status=Solve_Succeeded
success=true
DataType=double
version=3
OpenSimVersion=4.5
endheader
time	/jointset/ground_pelvis/pelvis_tilt/value	/jointset/ground_pelvis/pelvis_tx/value	/jointset/ground_pelvis/pelvis_ty/value	/jointset/hip_r/hip_flexion_r/value	/jointset/hip_r/hip_adduction_r/value	/jointset/hip_r/hip_rotation_r/value	/jointset/back/lumbar_extension/value	/jointset/patellofemoral_r/patellar_flexion_r/value	/jointset/knee_r/knee_flexion_r/value	/jointset/knee_r/knee_adduction_r/value	/jointset/knee_r/knee_rotation_r/value	/jointset/ankle_r/ankle_angle_r/value	/jointset/subtalar_r/subtalar_angle_r/value	/jointset/ground_pelvis/pelvis_tilt/speed	/jointset/ground_pelvis/pelvis_tx/speed	/jointset/ground_pelvis/pelvis_ty/speed	/jointset/hip_r/hip_flexion_r/speed	/jointset/hip_r/hip_adduction_r/speed	/jointset/hip_r/hip_rotation_r/speed	/jointset/back/lumbar_extension/speed	/jointset/patellofemoral_r/patellar_flexion_r/speed	/jointset/knee_r/knee_flexion_r/speed	/jointset/knee_r/knee_adduction_r/speed	/jointset/knee_r/knee_rotation_r/speed	/jointset/ankle_r/ankle_angle_r/speed	/jointset/subtalar_r/subtalar_angle_r/speed	/forceset/tau_hip_flexion_r	/forceset/tau_hip_adduction_r	/forceset/tau_hip_rotation_r	/forceset/tau_knee_flexion_r	/forceset/tau_ankle_angle_r	/forceset/tau_subtalar_angle_r	/forceset/tau_lumbar_extension	lambda_cid13_p0	lambda_cid14_p0	lambda_cid14_p1	lambda_cid14_p2	lambda_cid14_p3	lambda_cid14_p4	lambda_cid14_p5	/jointset/ground_pelvis/pelvis_tilt/accel	/jointset/ground_pelvis/pelvis_tx/accel	/jointset/ground_pelvis/pelvis_ty/accel	/jointset/hip_r/hip_flexion_r/accel	/jointset/hip_r/hip_adduction_r/accel	/jointset/hip_r/hip_rotation_r/accel	/jointset/back/lumbar_extension/accel	/jointset/patellofemoral_r/patellar_flexion_r/accel	/jointset/knee_r/knee_flexion_r/accel	/jointset/knee_r/knee_adduction_r/accel	/jointset/knee_r/knee_rotation_r/accel	/jointset/ankle_r/ankle_angle_r/accel	/jointset/subtalar_r/subtalar_angle_r/accel	gamma_cid13_p0	gamma_cid14_p0	gamma_cid14_p1	gamma_cid14_p2	gamma_cid14_p3	gamma_cid14_p4	gamma_cid14_p5
0	-0.007130044865053952	0.1316863096043101	0.9333110993024067	0.1934211968871041	-0.2290213201318222	-0.2400426376237982	-0.2903787966825928	0.2311786273363405	0.2311786273363406	0.134422184284797	0.1722720129382449	0.089344008118978	0.0628066178171247	0	0	0	0	0	0	0	0	0	0	0	0	0	0.09498471477897932	-0.03853388049661775	0.00431268480116173	-0.2238486465492571	0.09711728019055353	-0.09923837864907759	-0.01894925303216883	-29.90970297910786	-15.67798749979564	-40.6308467364935	0.9445501219755779	7.462353469513927	-609.9068172921196	30.23091773606804	-1.53008969821374	-1.844220975454514	-0.8203650668785222	9.398811860035773	-0.3034335942441749	2.469751858536588	-6.236039155597129	9.964880200693761	9.964880200694656	-1.908419311259548	0.3334146966565511	2.608877312709957	0.3448627995192204	3.996292044286965e-08	3.23268067280763e-08	-2.879373186775957e-07	1.957923092740129e-07	6.008362436648994e-10	1.749748277437107e-07	-2.349370787999872e-07
0.01	-0.007201622397919072	0.1315966192514142	0.9332711801186703	0.1938776333136805	-0.2290354224596469	-0.2399171294843481	-0.2906914165843924	0.2316670644897043	0.2316670644897005	0.1343273941059542	0.1722834759418254	0.08947355922936572	0.06282489501962989	-0.01433456802246194	-0.01770970707399116	-0.007966901866340172	0.09077251877184025	-0.00285775395531856	0.02506601236879524	-0.06206844767461249	0.09723684822760892	0.09723684822760956	-0.01874398475041138	0.002218878394611594	0.02595338767250571	0.003622535594895092	0.09645546049760459	-0.05521941324920409	0.003968708289042534	-0.2322390750024921	0.1081994901097485	-0.08931168044408694	-0.01870511035490295	-29.91483376078709	-11.5992745867907	-35.60317373856452	0.140310606857188	2.550358516948263	-611.5103995584392	41.61725276991129	-1.388002457691303	-1.700090927353162	-0.782277519404038	8.839256761053488	-0.2825512350071596	2.519725069694351	-6.12391767066845	9.535491774426369	9.535491774425912	-1.825309072175752	0.1551058132654244	2.595051638696627	0.3659907708847944	5.212254118437462e-08	7.121813147639695e-09	-4.018252942588041e-07	1.957325495564391e-07	3.230924339425177e-08	2.036064873823749e-08	-2.808023006269772e-07
0.02	-0.007417118031691917	0.131336682756982	0.9331521069616918	0.1952263519030387	-0.2290792233147912	-0.2395420213924842	-0.2916110549823925	0.2331143510534706	0.2331143510534699	0.1340515798765902	0.1723149240098253	0.08986394064531202	0.06287840594436611	-0.02878362018209124	-0.0340492283072537	-0.0158307946483668	0.1784564325554866	-0.005939705463901005	0.04991999048332547	-0.1214036992402347	0.1917698820804946	0.1917698820804928	-0.03620481011058014	0.003997012885301619	0.05216606111204322	0.007046744446198054	0.09792620621626104	-0.07190494600177527	0.00362473177691299	-0.2406295034557051	0.119281700028957	-0.07938498223907368	-0.0184609676776223	-29.92973834344532	-7.444005455583855	-30.57856399313921	-0.6446283365512927	-2.343145303146876	-611.9010583762589	52.76821098993177	-1.552986525647241	-1.570183807308763	-0.7997632500158151	8.781090862396992	-0.348273104896948	2.427345007683587	-5.689399933799084	9.424117325749105	9.424117325749389	-1.651787433211032	0.2452659158722334	2.660734466116347	0.3051974508008075	6.428216192587959e-08	-1.808318043279691e-08	-5.157132698400126e-07	1.956727898388654e-07	6.401765054483866e-08	-1.342535302672357e-07	-3.266675224539673e-07
0.03	-0.007777040356292811	0.1309185654252903	0.9329547127848895	0.1974378972048144	-0.2291548063190181	-0.2389209610601005	-0.2931105651506891	0.2354936421156726	0.2354936421156736	0.1336072792457222	0.1723633373374358	0.0905157377536179	0.06296480562541787	-0.0431202787130497	-0.04950876776585199	-0.02364381730717156	0.2634396635303756	-0.009176378306767116	0.07417515199572673	-0.1781003215788742	0.2836404756165108	0.2836404756165272	-0.05250839336740522	0.005665618242805178	0.07804196792397397	0.01019188503403251	0.0920837222483166	-0.07051806622549518	0.004243330508082731	-0.2342418747719308	0.1102423632781071	-0.07639003453458967	-0.01368220869108415	-29.95367626844515	-10.19751759182269	-29.6406558671079	-0.9304520149256192	-0.9559459742681649	-612.398771998293	53.71175152865444	-1.361917494523051	-1.524005543649021	-0.7714657384843512	8.294994484433458	-0.3113201064455468	2.407111429291114	-5.600091457933028	9.001339250463177	9.001339250465792	-1.597667989773508	0.124696310947315	2.528317984418445	0.3129189153474265	7.262892620484841e-08	-2.843165079386635e-08	-5.770219502769203e-07	2.02490117988706e-07	7.799110129205636e-08	-2.248337488284477e-07	-3.534023416984621e-07
0.04	-0.008277911661739948	0.1303478193933098	0.9326793095885647	0.2004868858702213	-0.2292627471981649	-0.2380608471713378	-0.2951651011571784	0.238778200889821	0.2387782008898227	0.1330043379387006	0.1724278444116761	0.09142175376918121	0.06308140602286254	-0.0569734163521317	-0.06457496836499269	-0.03143259855282732	0.3459451052812058	-0.01241128044819457	0.0977307017590366	-0.2324088668789831	0.3728234244699392	0.372823424469976	-0.06793294533844178	0.007215762210624462	0.1030098425633863	0.01308688772477428	0.08624123828036846	-0.06913118644922303	0.004861929239257858	-0.2278542460881599	0.1012030265272535	-0.07339508683011634	-0.008903449704544491	-29.98548172811782	-12.88063088146544	-28.70557720968425	-1.198511759680039	0.434836743470646	-611.7914010652718	54.4462947954823	-1.456282347271971	-1.491516035417225	-0.7949149673860182	8.285533017585237	-0.3479189646092105	2.28742265786531	-5.211784526092978	8.886588389231548	8.886588389232285	-1.47598117605334	0.2215736379353748	2.479128031612681	0.2551698713822829	8.089707488665153e-08	-3.847380108855709e-08	-6.37246521535595e-07	2.09449241764679e-07	9.159888283508088e-08	-3.140936795454482e-07	-3.797427196525963e-07
0.05	-0.008915615240309257	0.1296286797710619	0.9323258793543735	0.2043491408290659	-0.2294031462698739	-0.2369686726252799	-0.297750472157068	0.2429414932607912	0.2429414932607941	0.1322518983889985	0.1725073032130694	0.09257331200362534	0.06322567758542245	-0.07051389023795278	-0.07915568553118967	-0.03926716527874511	0.4260885498667641	-0.01566433655751761	0.1206041193557989	-0.2842837202462596	0.4593883355156388	0.4593883355156494	-0.08239769397486113	0.008628455320616726	0.127186278235273	0.01574076583258108	0.08169022747200994	-0.06432182437226733	0.005245865077185234	-0.2252420197790528	0.09852299877476388	-0.07441860996182366	-0.004992673745493238	-30.02387750212557	-13.74707279795919	-29.34309824215762	-1.049702673731544	0.4177290464322421	-611.4325271059831	52.11197826939527	-1.294911811695712	-1.426740544436195	-0.7798486142243419	7.816149918676981	-0.3134122762702352	2.272342594984356	-5.118093814192339	8.474419084737443	8.474419084733009	-1.408210677252242	0.09403367705238069	2.369582027340582	0.2664235359462943	7.745693910796878e-08	-5.08949855219998e-08	-6.246262847883024e-07	1.615541916294067e-07	9.855118147588374e-08	-3.929094081778103e-07	-3.409264925266379e-07
0.06	-0.009687119938225016	0.128766654779709	0.9318936792351172	0.2090003101816943	-0.2295759585711098	-0.2356507556463736	-0.3008431433050595	0.2479570300667179	0.2479570300667203	0.131359513558965	0.172599472251466	0.09396317073326138	0.06339567328015379	-0.0837336402221226	-0.09315204218599409	-0.04718657556584757	0.5037279840377528	-0.01889392635389495	0.142879188328668	-0.3338688964994338	0.5432723114612693	0.5432723114612489	-0.09592200140392258	0.009757809611458057	0.1506699416017176	0.01823171415904553	0.07713921666363956	-0.05951246229531447	0.005629800915106945	-0.2226297934699499	0.0958429710222722	-0.07544213309353495	-0.001081897786449584	-30.06718987936775	-14.55022215490647	-29.98584885104762	-0.8814268619057974	0.3975900559098007	-610.0819837996212	49.58860285067269	-1.392137566941742	-1.374643933138698	-0.8118836796229529	7.784730934671301	-0.3432257020200641	2.167752933086691	-4.753849103272545	8.350401369217714	8.350401369217474	-1.287892934581776	0.1649058741051839	2.340573570524294	0.2225839151138255	7.352382293094979e-08	-6.341633981391626e-08	-6.089388982302322e-07	1.113494920662925e-07	1.052232492576457e-07	-4.712853809329245e-07	-2.993668293973073e-07
0.07000000000000001	-0.0105896393964082	0.127767622014935	0.931381656912645	0.2144159342604623	-0.2297812320833493	-0.2341135314367756	-0.3044197875226365	0.2537984152578814	0.2537984152578814	0.130337202012266	0.1727021867357508	0.09558446266925769	0.06358943700814468	-0.0967115850536328	-0.106552179939906	-0.05524310028775484	0.5789733099472655	-0.02215090013329745	0.164448847440112	-0.3810857908911884	0.624562296954172	0.6245622969541836	-0.1083849569234236	0.01074809623184299	0.1734791706388658	0.02050327108601034	0.07229441640716538	-0.06086114652564326	0.006124159341559252	-0.220529778292063	0.09212411219777472	-0.07128724165474322	0.00303201474944429	-30.1136812186783	-15.42285545573029	-28.30436060821242	-1.183553435106403	0.2403312331124381	-609.0829980334198	51.9947750733494	-1.241814417690895	-1.30732794663704	-0.8064137794326202	7.330904503893523	-0.3155034858828232	2.134089143772673	-4.649486188442456	7.9519180096879	7.951918009692912	-1.202277752507423	0.06057084879500595	2.234714726576701	0.2266964613566359	6.630855143209234e-08	-7.196154149143472e-08	-5.553877088789594e-07	6.550004685778535e-08	1.068194294442043e-07	-5.252816653691436e-07	-2.476797055838656e-07
0.08	-0.01162017659819065	0.1266376620225979	0.9307882939607618	0.2205713058152859	-0.2300187893873789	-0.2323641072873445	-0.3084573760003945	0.2604394244780432	0.260439424478046	0.1291949047320193	0.1728137002447968	0.09743057032687757	0.06380536728137906	-0.1093371889425615	-0.1193374876986032	-0.06345470144798937	0.6516774792488625	-0.02535068471200496	0.1853191762955331	-0.4260577485355679	0.7031971172615289	0.7031971172615767	-0.119919148117855	0.01151761456382183	0.1956330859266799	0.02266502320773015	0.06744961615067942	-0.06220983075595533	0.006618517768019523	-0.2184297631141778	0.08840525337328334	-0.06713235021592953	0.007145927285322126	-30.16133434923328	-16.23934310516323	-26.62184615483109	-1.475785954662554	0.06743089309667891	-607.2183814010079	54.2569914429138	-1.321669378425461	-1.251677934095756	-0.8428989672884059	7.276499613088152	-0.331787861881057	2.027886881882122	-4.304861753797534	7.819368332108553	7.819368332109167	-1.102140069567859	0.1207522164239606	2.209510820657505	0.2006229540648365	5.888152797698726e-08	-8.025021719383072e-08	-4.993936935410285e-07	1.993158580118837e-08	1.080881330117174e-07	-5.777050666880144e-07	-1.953391972101589e-07
0.09	-0.01277564150662635	0.1253828461611017	0.9301118772658451	0.2274418249143451	-0.2302881721477526	-0.2304097816006917	-0.3129331439945232	0.267853977381275	0.2678539773812783	0.1279421133198818	0.1729322846523698	0.09949495078379468	0.06404223176466189	-0.1216951005735656	-0.1315290356781618	-0.07186193475440701	0.7220149216179368	-0.02850596672133744	0.2054325711471547	-0.468737473251343	0.7792744609532442	0.7792744609532073	-0.1304964442498699	0.01215389835143429	0.2171276901723108	0.02470061854300243	0.06217241133307713	-0.06049318378216324	0.00713571046048697	-0.2163085921552593	0.08484150255144936	-0.06502146340608006	0.01153344137184834	-30.20811243505072	-17.14814008195993	-25.88398443004043	-1.570836415877808	0.06644345018046552	-605.7714135286852	54.4673118281375	-1.183738232784038	-1.188374253377002	-0.8447464834369635	6.850652754766559	-0.304462579847781	1.98607684448511	-4.195771274679292	7.436055366696957	7.436055366683873	-1.014194518704099	0.02827216147318455	2.102143538921311	0.20386560000977	4.673707014264522e-08	-8.964764114840012e-08	-4.247279668971998e-07	-5.522886296362412e-08	1.064895483135597e-07	-6.160329549900107e-07	-1.164342158779687e-07
